<svg xmlns="http://www.w3.org/2000/svg" xmlns:xlink="http://www.w3.org/1999/xlink" width="500" zoomAndPan="magnify" viewBox="0 0 375 149.999998" height="200" preserveAspectRatio="xMidYMid meet" version="1.0"><defs><g/><clipPath id="a6b07e891e"><path d="M 273 23 L 303.878906 23 L 303.878906 53 L 273 53 Z M 273 23 " clip-rule="nonzero"/></clipPath><clipPath id="2dbfb36b68"><rect x="0" width="304" y="0" height="90"/></clipPath></defs><g transform="matrix(1, 0, 0, 1, 35, 24)"><g clip-path="url(#2dbfb36b68)"><g fill="#737373" fill-opacity="1"><g transform="translate(24.248643, 84.403319)"><g><path d="M 7.203125 0 L 4.046875 -10.296875 L 3.96875 -10.296875 C 4.082031 -8.203125 4.140625 -6.800781 4.140625 -6.09375 L 4.140625 0 L 1.65625 0 L 1.65625 -13.125 L 5.4375 -13.125 L 8.546875 -3.09375 L 8.59375 -3.09375 L 11.890625 -13.125 L 15.671875 -13.125 L 15.671875 0 L 13.078125 0 L 13.078125 -6.203125 C 13.078125 -6.492188 13.082031 -6.832031 13.09375 -7.21875 C 13.101562 -7.601562 13.144531 -8.617188 13.21875 -10.265625 L 13.140625 -10.265625 L 9.75 0 Z M 7.203125 0 "/></g></g></g><g fill="#737373" fill-opacity="1"><g transform="translate(45.907833, 84.403319)"><g><path d="M 9.6875 0 L 8.734375 -3.125 L 3.953125 -3.125 L 3 0 L 0 0 L 4.625 -13.171875 L 8.03125 -13.171875 L 12.671875 0 Z M 8.0625 -5.453125 C 7.1875 -8.285156 6.691406 -9.882812 6.578125 -10.25 C 6.472656 -10.625 6.394531 -10.921875 6.34375 -11.140625 C 6.144531 -10.367188 5.578125 -8.472656 4.640625 -5.453125 Z M 8.0625 -5.453125 "/></g></g></g><g fill="#737373" fill-opacity="1"><g transform="translate(62.920105, 84.403319)"><g><path d="M 4.4375 -7.296875 L 5.328125 -7.296875 C 6.203125 -7.296875 6.847656 -7.441406 7.265625 -7.734375 C 7.691406 -8.023438 7.90625 -8.484375 7.90625 -9.109375 C 7.90625 -9.734375 7.691406 -10.175781 7.265625 -10.4375 C 6.835938 -10.707031 6.175781 -10.84375 5.28125 -10.84375 L 4.4375 -10.84375 Z M 4.4375 -5.03125 L 4.4375 0 L 1.65625 0 L 1.65625 -13.125 L 5.46875 -13.125 C 7.25 -13.125 8.566406 -12.796875 9.421875 -12.140625 C 10.285156 -11.492188 10.71875 -10.507812 10.71875 -9.1875 C 10.71875 -8.414062 10.503906 -7.726562 10.078125 -7.125 C 9.648438 -6.53125 9.046875 -6.0625 8.265625 -5.71875 C 10.242188 -2.769531 11.53125 -0.863281 12.125 0 L 9.046875 0 L 5.90625 -5.03125 Z M 4.4375 -5.03125 "/></g></g></g><g fill="#737373" fill-opacity="1"><g transform="translate(79.385154, 84.403319)"><g><path d="M 12.203125 0 L 9.046875 0 L 5.609375 -5.53125 L 4.4375 -4.6875 L 4.4375 0 L 1.65625 0 L 1.65625 -13.125 L 4.4375 -13.125 L 4.4375 -7.109375 L 5.53125 -8.65625 L 9.078125 -13.125 L 12.171875 -13.125 L 7.59375 -7.3125 Z M 12.203125 0 "/></g></g></g><g fill="#737373" fill-opacity="1"><g transform="translate(95.92197, 84.403319)"><g><path d="M 9.203125 0 L 1.65625 0 L 1.65625 -13.125 L 9.203125 -13.125 L 9.203125 -10.84375 L 4.4375 -10.84375 L 4.4375 -7.953125 L 8.875 -7.953125 L 8.875 -5.671875 L 4.4375 -5.671875 L 4.4375 -2.296875 L 9.203125 -2.296875 Z M 9.203125 0 "/></g></g></g><g fill="#737373" fill-opacity="1"><g transform="translate(110.547989, 84.403319)"><g><path d="M 6.71875 0 L 3.9375 0 L 3.9375 -10.796875 L 0.375 -10.796875 L 0.375 -13.125 L 10.265625 -13.125 L 10.265625 -10.796875 L 6.71875 -10.796875 Z M 6.71875 0 "/></g></g></g><g fill="#737373" fill-opacity="1"><g transform="translate(125.523875, 84.403319)"><g><path d="M 1.65625 0 L 1.65625 -13.125 L 4.4375 -13.125 L 4.4375 0 Z M 1.65625 0 "/></g></g></g><g fill="#737373" fill-opacity="1"><g transform="translate(135.942546, 84.403319)"><g><path d="M 13.28125 0 L 9.75 0 L 4.046875 -9.921875 L 3.96875 -9.921875 C 4.082031 -8.171875 4.140625 -6.921875 4.140625 -6.171875 L 4.140625 0 L 1.65625 0 L 1.65625 -13.125 L 5.15625 -13.125 L 10.859375 -3.296875 L 10.921875 -3.296875 C 10.828125 -4.992188 10.78125 -6.195312 10.78125 -6.90625 L 10.78125 -13.125 L 13.28125 -13.125 Z M 13.28125 0 "/></g></g></g><g fill="#737373" fill-opacity="1"><g transform="translate(155.215481, 84.403319)"><g><path d="M 6.625 -7.359375 L 11.828125 -7.359375 L 11.828125 -0.5625 C 10.984375 -0.289062 10.1875 -0.101562 9.4375 0 C 8.695312 0.113281 7.941406 0.171875 7.171875 0.171875 C 5.191406 0.171875 3.675781 -0.40625 2.625 -1.5625 C 1.582031 -2.726562 1.0625 -4.398438 1.0625 -6.578125 C 1.0625 -8.691406 1.664062 -10.34375 2.875 -11.53125 C 4.09375 -12.71875 5.773438 -13.3125 7.921875 -13.3125 C 9.265625 -13.3125 10.5625 -13.039062 11.8125 -12.5 L 10.890625 -10.265625 C 9.929688 -10.742188 8.9375 -10.984375 7.90625 -10.984375 C 6.695312 -10.984375 5.734375 -10.578125 5.015625 -9.765625 C 4.296875 -8.960938 3.9375 -7.878906 3.9375 -6.515625 C 3.9375 -5.097656 4.222656 -4.015625 4.796875 -3.265625 C 5.378906 -2.515625 6.226562 -2.140625 7.34375 -2.140625 C 7.925781 -2.140625 8.515625 -2.195312 9.109375 -2.3125 L 9.109375 -5.046875 L 6.625 -5.046875 Z M 6.625 -7.359375 "/></g></g></g><g fill="#737373" fill-opacity="1"><g transform="translate(172.855715, 84.403319)"><g/></g></g><g fill="#737373" fill-opacity="1"><g transform="translate(181.964638, 84.403319)"><g><path d="M 12.53125 -6.6875 C 12.53125 -4.53125 11.914062 -2.875 10.6875 -1.71875 C 9.457031 -0.570312 7.679688 0 5.359375 0 L 1.65625 0 L 1.65625 -13.125 L 5.765625 -13.125 C 7.910156 -13.125 9.570312 -12.554688 10.75 -11.421875 C 11.9375 -10.285156 12.53125 -8.707031 12.53125 -6.6875 Z M 9.640625 -6.609375 C 9.640625 -9.429688 8.394531 -10.84375 5.90625 -10.84375 L 4.4375 -10.84375 L 4.4375 -2.296875 L 5.625 -2.296875 C 8.300781 -2.296875 9.640625 -3.734375 9.640625 -6.609375 Z M 9.640625 -6.609375 "/></g></g></g><g fill="#737373" fill-opacity="1"><g transform="translate(199.900908, 84.403319)"><g><path d="M 1.65625 0 L 1.65625 -13.125 L 4.4375 -13.125 L 4.4375 0 Z M 1.65625 0 "/></g></g></g><g fill="#737373" fill-opacity="1"><g transform="translate(210.319587, 84.403319)"><g><path d="M 6.625 -7.359375 L 11.828125 -7.359375 L 11.828125 -0.5625 C 10.984375 -0.289062 10.1875 -0.101562 9.4375 0 C 8.695312 0.113281 7.941406 0.171875 7.171875 0.171875 C 5.191406 0.171875 3.675781 -0.40625 2.625 -1.5625 C 1.582031 -2.726562 1.0625 -4.398438 1.0625 -6.578125 C 1.0625 -8.691406 1.664062 -10.34375 2.875 -11.53125 C 4.09375 -12.71875 5.773438 -13.3125 7.921875 -13.3125 C 9.265625 -13.3125 10.5625 -13.039062 11.8125 -12.5 L 10.890625 -10.265625 C 9.929688 -10.742188 8.9375 -10.984375 7.90625 -10.984375 C 6.695312 -10.984375 5.734375 -10.578125 5.015625 -9.765625 C 4.296875 -8.960938 3.9375 -7.878906 3.9375 -6.515625 C 3.9375 -5.097656 4.222656 -4.015625 4.796875 -3.265625 C 5.378906 -2.515625 6.226562 -2.140625 7.34375 -2.140625 C 7.925781 -2.140625 8.515625 -2.195312 9.109375 -2.3125 L 9.109375 -5.046875 L 6.625 -5.046875 Z M 6.625 -7.359375 "/></g></g></g><g fill="#737373" fill-opacity="1"><g transform="translate(227.959821, 84.403319)"><g><path d="M 1.65625 0 L 1.65625 -13.125 L 4.4375 -13.125 L 4.4375 0 Z M 1.65625 0 "/></g></g></g><g fill="#737373" fill-opacity="1"><g transform="translate(238.3785, 84.403319)"><g><path d="M 6.71875 0 L 3.9375 0 L 3.9375 -10.796875 L 0.375 -10.796875 L 0.375 -13.125 L 10.265625 -13.125 L 10.265625 -10.796875 L 6.71875 -10.796875 Z M 6.71875 0 "/></g></g></g><g fill="#737373" fill-opacity="1"><g transform="translate(253.354386, 84.403319)"><g><path d="M 9.6875 0 L 8.734375 -3.125 L 3.953125 -3.125 L 3 0 L 0 0 L 4.625 -13.171875 L 8.03125 -13.171875 L 12.671875 0 Z M 8.0625 -5.453125 C 7.1875 -8.285156 6.691406 -9.882812 6.578125 -10.25 C 6.472656 -10.625 6.394531 -10.921875 6.34375 -11.140625 C 6.144531 -10.367188 5.578125 -8.472656 4.640625 -5.453125 Z M 8.0625 -5.453125 "/></g></g></g><g fill="#737373" fill-opacity="1"><g transform="translate(270.366665, 84.403319)"><g><path d="M 1.65625 0 L 1.65625 -13.125 L 4.4375 -13.125 L 4.4375 -2.296875 L 9.75 -2.296875 L 9.75 0 Z M 1.65625 0 "/></g></g></g><g fill="#1b1338" fill-opacity="1"><g transform="translate(0.142906, 51.832666)"><g><path d="M 1.515625 0 C 2.304688 -0.289062 2.9375 -0.625 3.40625 -1 C 3.882812 -1.375 4.226562 -1.90625 4.4375 -2.59375 C 4.644531 -3.289062 4.75 -4.265625 4.75 -5.515625 L 4.75 -22.484375 C 4.75 -23.734375 4.644531 -24.703125 4.4375 -25.390625 C 4.226562 -26.085938 3.882812 -26.617188 3.40625 -26.984375 C 2.9375 -27.359375 2.304688 -27.695312 1.515625 -28 L 16.3125 -28 C 15.507812 -27.695312 14.867188 -27.359375 14.390625 -26.984375 C 13.921875 -26.617188 13.582031 -26.085938 13.375 -25.390625 C 13.164062 -24.703125 13.0625 -23.734375 13.0625 -22.484375 L 13.0625 -6.046875 L 27.15625 -6.046875 C 28.894531 -6.046875 30.144531 -6.367188 30.90625 -7.015625 C 31.664062 -7.671875 32.234375 -8.679688 32.609375 -10.046875 L 32.609375 0 Z M 1.515625 0 "/></g></g></g><g fill="#1b1338" fill-opacity="1"><g transform="translate(29.693867, 51.832666)"><g><path d="M 0.40625 0 C 1.226562 -0.445312 1.882812 -0.90625 2.375 -1.375 C 2.863281 -1.851562 3.285156 -2.460938 3.640625 -3.203125 C 3.992188 -3.941406 4.378906 -4.90625 4.796875 -6.09375 L 12.890625 -28 L 25.78125 -28 L 33.859375 -6.09375 C 34.304688 -4.90625 34.707031 -3.941406 35.0625 -3.203125 C 35.414062 -2.460938 35.835938 -1.851562 36.328125 -1.375 C 36.816406 -0.90625 37.476562 -0.445312 38.3125 0 L 22.75 0 C 23.90625 -0.238281 24.726562 -0.578125 25.21875 -1.015625 C 25.707031 -1.460938 25.953125 -2.054688 25.953125 -2.796875 C 25.953125 -3.097656 25.914062 -3.425781 25.84375 -3.78125 C 25.769531 -4.132812 25.65625 -4.503906 25.5 -4.890625 L 24.796875 -6.890625 L 13.859375 -6.890625 L 13.15625 -4.890625 C 13.03125 -4.503906 12.921875 -4.140625 12.828125 -3.796875 C 12.742188 -3.453125 12.703125 -3.117188 12.703125 -2.796875 C 12.703125 -2.085938 12.953125 -1.503906 13.453125 -1.046875 C 13.960938 -0.585938 14.796875 -0.238281 15.953125 0 Z M 15.90625 -12.9375 L 22.703125 -12.9375 L 19.28125 -22.75 Z M 15.90625 -12.9375 "/></g></g></g><g fill="#1b1338" fill-opacity="1"><g transform="translate(64.843974, 51.832666)"><g><path d="M 16.84375 -28.390625 C 19.65625 -28.390625 22.082031 -28.253906 24.125 -27.984375 C 26.175781 -27.722656 27.75 -27.457031 28.84375 -27.1875 C 29.9375 -26.925781 30.484375 -26.796875 30.484375 -26.796875 L 30.484375 -18.125 C 30.484375 -18.125 30.347656 -18.320312 30.078125 -18.71875 C 29.816406 -19.125 29.273438 -19.585938 28.453125 -20.109375 C 27.640625 -20.628906 26.421875 -21.066406 24.796875 -21.421875 C 23.609375 -21.660156 22.257812 -21.867188 20.75 -22.046875 C 19.238281 -22.222656 17.640625 -22.3125 15.953125 -22.3125 C 13.847656 -22.3125 12.394531 -22.140625 11.59375 -21.796875 C 10.789062 -21.453125 10.390625 -20.878906 10.390625 -20.078125 C 10.390625 -19.398438 10.65625 -18.910156 11.1875 -18.609375 C 11.726562 -18.316406 12.414062 -18.097656 13.25 -17.953125 L 22.75 -16.625 C 25.832031 -16.238281 28.0625 -15.378906 29.4375 -14.046875 C 30.8125 -12.710938 31.5 -10.859375 31.5 -8.484375 C 31.5 -6.648438 31.066406 -5.066406 30.203125 -3.734375 C 29.347656 -2.398438 27.921875 -1.375 25.921875 -0.65625 C 23.929688 0.0507812 21.1875 0.40625 17.6875 0.40625 C 14.3125 0.40625 11.46875 0.269531 9.15625 0 C 6.84375 -0.269531 5.085938 -0.546875 3.890625 -0.828125 C 2.691406 -1.109375 2.09375 -1.25 2.09375 -1.25 L 2.140625 -9.734375 C 2.140625 -9.734375 2.320312 -9.515625 2.6875 -9.078125 C 3.0625 -8.648438 3.691406 -8.175781 4.578125 -7.65625 C 5.460938 -7.144531 6.691406 -6.738281 8.265625 -6.4375 C 9.484375 -6.226562 10.898438 -6.039062 12.515625 -5.875 C 14.128906 -5.71875 15.941406 -5.640625 17.953125 -5.640625 C 19.816406 -5.640625 21.15625 -5.863281 21.96875 -6.3125 C 22.789062 -6.757812 23.203125 -7.441406 23.203125 -8.359375 C 23.203125 -8.972656 22.992188 -9.453125 22.578125 -9.796875 C 22.160156 -10.140625 21.476562 -10.398438 20.53125 -10.578125 L 10.9375 -11.859375 C 7.914062 -12.210938 5.6875 -13.054688 4.25 -14.390625 C 2.8125 -15.722656 2.09375 -17.59375 2.09375 -20 C 2.09375 -21.894531 2.570312 -23.460938 3.53125 -24.703125 C 4.5 -25.953125 6.0625 -26.878906 8.21875 -27.484375 C 10.382812 -28.085938 13.257812 -28.390625 16.84375 -28.390625 Z M 16.84375 -28.390625 "/></g></g></g><g fill="#1b1338" fill-opacity="1"><g transform="translate(94.439371, 51.832666)"><g/></g></g><g fill="#1b1338" fill-opacity="1"><g transform="translate(104.393314, 51.832666)"><g><path d="M 2.09375 -14 C 2.09375 -18.769531 3.539062 -22.359375 6.4375 -24.765625 C 9.34375 -27.179688 13.625 -28.390625 19.28125 -28.390625 C 22.25 -28.390625 24.691406 -28.253906 26.609375 -27.984375 C 28.535156 -27.722656 29.972656 -27.453125 30.921875 -27.171875 C 31.867188 -26.890625 32.34375 -26.75 32.34375 -26.75 L 32.34375 -18.703125 C 32.34375 -18.703125 32.179688 -18.863281 31.859375 -19.1875 C 31.535156 -19.519531 31.003906 -19.898438 30.265625 -20.328125 C 29.523438 -20.753906 28.53125 -21.144531 27.28125 -21.5 C 26.394531 -21.738281 25.390625 -21.941406 24.265625 -22.109375 C 23.140625 -22.273438 21.835938 -22.359375 20.359375 -22.359375 C 16.972656 -22.359375 14.460938 -21.625 12.828125 -20.15625 C 11.203125 -18.6875 10.390625 -16.632812 10.390625 -14 C 10.390625 -11.363281 11.203125 -9.3125 12.828125 -7.84375 C 14.460938 -6.375 16.972656 -5.640625 20.359375 -5.640625 C 21.921875 -5.640625 23.300781 -5.726562 24.5 -5.90625 C 25.707031 -6.082031 26.753906 -6.304688 27.640625 -6.578125 C 28.828125 -6.929688 29.757812 -7.316406 30.4375 -7.734375 C 31.125 -8.148438 31.613281 -8.507812 31.90625 -8.8125 C 32.195312 -9.125 32.34375 -9.28125 32.34375 -9.28125 L 32.34375 -1.25 C 32.34375 -1.25 31.867188 -1.109375 30.921875 -0.828125 C 29.972656 -0.546875 28.535156 -0.269531 26.609375 0 C 24.691406 0.269531 22.25 0.40625 19.28125 0.40625 C 13.625 0.40625 9.34375 -0.804688 6.4375 -3.234375 C 3.539062 -5.671875 2.09375 -9.257812 2.09375 -14 Z M 2.09375 -14 "/></g></g></g><g fill="#1b1338" fill-opacity="1"><g transform="translate(135.277397, 51.832666)"><g><path d="M 0.40625 0 C 1.226562 -0.445312 1.882812 -0.90625 2.375 -1.375 C 2.863281 -1.851562 3.285156 -2.460938 3.640625 -3.203125 C 3.992188 -3.941406 4.378906 -4.90625 4.796875 -6.09375 L 12.890625 -28 L 25.78125 -28 L 33.859375 -6.09375 C 34.304688 -4.90625 34.707031 -3.941406 35.0625 -3.203125 C 35.414062 -2.460938 35.835938 -1.851562 36.328125 -1.375 C 36.816406 -0.90625 37.476562 -0.445312 38.3125 0 L 22.75 0 C 23.90625 -0.238281 24.726562 -0.578125 25.21875 -1.015625 C 25.707031 -1.460938 25.953125 -2.054688 25.953125 -2.796875 C 25.953125 -3.097656 25.914062 -3.425781 25.84375 -3.78125 C 25.769531 -4.132812 25.65625 -4.503906 25.5 -4.890625 L 24.796875 -6.890625 L 13.859375 -6.890625 L 13.15625 -4.890625 C 13.03125 -4.503906 12.921875 -4.140625 12.828125 -3.796875 C 12.742188 -3.453125 12.703125 -3.117188 12.703125 -2.796875 C 12.703125 -2.085938 12.953125 -1.503906 13.453125 -1.046875 C 13.960938 -0.585938 14.796875 -0.238281 15.953125 0 Z M 15.90625 -12.9375 L 22.703125 -12.9375 L 19.28125 -22.75 Z M 15.90625 -12.9375 "/></g></g></g><g fill="#1b1338" fill-opacity="1"><g transform="translate(170.42751, 51.832666)"><g><path d="M 1.515625 0 C 2.304688 -0.289062 2.9375 -0.625 3.40625 -1 C 3.882812 -1.375 4.226562 -1.90625 4.4375 -2.59375 C 4.644531 -3.289062 4.75 -4.265625 4.75 -5.515625 L 4.75 -22.484375 C 4.75 -23.734375 4.644531 -24.703125 4.4375 -25.390625 C 4.226562 -26.085938 3.882812 -26.617188 3.40625 -26.984375 C 2.9375 -27.359375 2.304688 -27.695312 1.515625 -28 L 22.578125 -28 C 26.015625 -28 28.472656 -27.34375 29.953125 -26.03125 C 31.429688 -24.726562 32.171875 -22.804688 32.171875 -20.265625 C 32.171875 -17.835938 31.488281 -15.957031 30.125 -14.625 C 31.519531 -14.03125 32.535156 -13.15625 33.171875 -12 C 33.804688 -10.84375 34.125 -9.421875 34.125 -7.734375 C 34.125 -5.179688 33.382812 -3.253906 31.90625 -1.953125 C 30.425781 -0.648438 27.96875 0 24.53125 0 Z M 13.0625 -11.25 L 13.0625 -5.515625 L 22.4375 -5.515625 C 23.65625 -5.515625 24.53125 -5.75 25.0625 -6.21875 C 25.59375 -6.695312 25.859375 -7.394531 25.859375 -8.3125 C 25.859375 -9.289062 25.59375 -10.023438 25.0625 -10.515625 C 24.53125 -11.003906 23.65625 -11.25 22.4375 -11.25 Z M 13.0625 -16.75 L 20.4375 -16.75 C 21.65625 -16.75 22.519531 -16.992188 23.03125 -17.484375 C 23.550781 -17.972656 23.8125 -18.707031 23.8125 -19.6875 C 23.8125 -20.632812 23.550781 -21.335938 23.03125 -21.796875 C 22.519531 -22.253906 21.65625 -22.484375 20.4375 -22.484375 L 13.0625 -22.484375 Z M 13.0625 -16.75 "/></g></g></g><g fill="#1b1338" fill-opacity="1"><g transform="translate(203.133537, 51.832666)"><g><path d="M 1.515625 -28 L 23.5 -28 C 27.113281 -28 29.785156 -27.226562 31.515625 -25.6875 C 33.253906 -24.144531 34.125 -21.703125 34.125 -18.359375 C 34.125 -15.804688 33.617188 -13.796875 32.609375 -12.328125 C 31.609375 -10.859375 30.054688 -9.875 27.953125 -9.375 L 30.265625 -6.09375 C 31.390625 -4.425781 32.429688 -3.117188 33.390625 -2.171875 C 34.359375 -1.222656 35.40625 -0.5 36.53125 0 L 24.53125 0 L 14.625 -14.96875 L 21.6875 -14.96875 C 23.101562 -14.96875 24.148438 -15.234375 24.828125 -15.765625 C 25.515625 -16.304688 25.859375 -17.195312 25.859375 -18.4375 C 25.859375 -19.6875 25.515625 -20.582031 24.828125 -21.125 C 24.148438 -21.675781 23.101562 -21.953125 21.6875 -21.953125 L 13.0625 -21.953125 L 13.0625 -5.515625 C 13.0625 -4.265625 13.164062 -3.289062 13.375 -2.59375 C 13.582031 -1.90625 13.921875 -1.375 14.390625 -1 C 14.867188 -0.625 15.507812 -0.289062 16.3125 0 L 1.515625 0 C 2.304688 -0.289062 2.9375 -0.625 3.40625 -1 C 3.882812 -1.375 4.226562 -1.90625 4.4375 -2.59375 C 4.644531 -3.289062 4.75 -4.265625 4.75 -5.515625 L 4.75 -22.484375 C 4.75 -23.734375 4.644531 -24.703125 4.4375 -25.390625 C 4.226562 -26.085938 3.882812 -26.617188 3.40625 -26.984375 C 2.9375 -27.359375 2.304688 -27.695312 1.515625 -28 Z M 1.515625 -28 "/></g></g></g><g fill="#1b1338" fill-opacity="1"><g transform="translate(236.595026, 51.832666)"><g><path d="M 0.40625 0 C 1.226562 -0.445312 1.882812 -0.90625 2.375 -1.375 C 2.863281 -1.851562 3.285156 -2.460938 3.640625 -3.203125 C 3.992188 -3.941406 4.378906 -4.90625 4.796875 -6.09375 L 12.890625 -28 L 25.78125 -28 L 33.859375 -6.09375 C 34.304688 -4.90625 34.707031 -3.941406 35.0625 -3.203125 C 35.414062 -2.460938 35.835938 -1.851562 36.328125 -1.375 C 36.816406 -0.90625 37.476562 -0.445312 38.3125 0 L 22.75 0 C 23.90625 -0.238281 24.726562 -0.578125 25.21875 -1.015625 C 25.707031 -1.460938 25.953125 -2.054688 25.953125 -2.796875 C 25.953125 -3.097656 25.914062 -3.425781 25.84375 -3.78125 C 25.769531 -4.132812 25.65625 -4.503906 25.5 -4.890625 L 24.796875 -6.890625 L 13.859375 -6.890625 L 13.15625 -4.890625 C 13.03125 -4.503906 12.921875 -4.140625 12.828125 -3.796875 C 12.742188 -3.453125 12.703125 -3.117188 12.703125 -2.796875 C 12.703125 -2.085938 12.953125 -1.503906 13.453125 -1.046875 C 13.960938 -0.585938 14.796875 -0.238281 15.953125 0 Z M 15.90625 -12.9375 L 22.703125 -12.9375 L 19.28125 -22.75 Z M 15.90625 -12.9375 "/></g></g></g><g clip-path="url(#a6b07e891e)"><g fill="#1b1338" fill-opacity="1"><g transform="translate(271.745126, 51.832666)"><g><path d="M 16.84375 -28.390625 C 19.65625 -28.390625 22.082031 -28.253906 24.125 -27.984375 C 26.175781 -27.722656 27.75 -27.457031 28.84375 -27.1875 C 29.9375 -26.925781 30.484375 -26.796875 30.484375 -26.796875 L 30.484375 -18.125 C 30.484375 -18.125 30.347656 -18.320312 30.078125 -18.71875 C 29.816406 -19.125 29.273438 -19.585938 28.453125 -20.109375 C 27.640625 -20.628906 26.421875 -21.066406 24.796875 -21.421875 C 23.609375 -21.660156 22.257812 -21.867188 20.75 -22.046875 C 19.238281 -22.222656 17.640625 -22.3125 15.953125 -22.3125 C 13.847656 -22.3125 12.394531 -22.140625 11.59375 -21.796875 C 10.789062 -21.453125 10.390625 -20.878906 10.390625 -20.078125 C 10.390625 -19.398438 10.65625 -18.910156 11.1875 -18.609375 C 11.726562 -18.316406 12.414062 -18.097656 13.25 -17.953125 L 22.75 -16.625 C 25.832031 -16.238281 28.0625 -15.378906 29.4375 -14.046875 C 30.8125 -12.710938 31.5 -10.859375 31.5 -8.484375 C 31.5 -6.648438 31.066406 -5.066406 30.203125 -3.734375 C 29.347656 -2.398438 27.921875 -1.375 25.921875 -0.65625 C 23.929688 0.0507812 21.1875 0.40625 17.6875 0.40625 C 14.3125 0.40625 11.46875 0.269531 9.15625 0 C 6.84375 -0.269531 5.085938 -0.546875 3.890625 -0.828125 C 2.691406 -1.109375 2.09375 -1.25 2.09375 -1.25 L 2.140625 -9.734375 C 2.140625 -9.734375 2.320312 -9.515625 2.6875 -9.078125 C 3.0625 -8.648438 3.691406 -8.175781 4.578125 -7.65625 C 5.460938 -7.144531 6.691406 -6.738281 8.265625 -6.4375 C 9.484375 -6.226562 10.898438 -6.039062 12.515625 -5.875 C 14.128906 -5.71875 15.941406 -5.640625 17.953125 -5.640625 C 19.816406 -5.640625 21.15625 -5.863281 21.96875 -6.3125 C 22.789062 -6.757812 23.203125 -7.441406 23.203125 -8.359375 C 23.203125 -8.972656 22.992188 -9.453125 22.578125 -9.796875 C 22.160156 -10.140625 21.476562 -10.398438 20.53125 -10.578125 L 10.9375 -11.859375 C 7.914062 -12.210938 5.6875 -13.054688 4.25 -14.390625 C 2.8125 -15.722656 2.09375 -17.59375 2.09375 -20 C 2.09375 -21.894531 2.570312 -23.460938 3.53125 -24.703125 C 4.5 -25.953125 6.0625 -26.878906 8.21875 -27.484375 C 10.382812 -28.085938 13.257812 -28.390625 16.84375 -28.390625 Z M 16.84375 -28.390625 "/></g></g></g></g></g></g></svg>