<svg xmlns="http://www.w3.org/2000/svg" xmlns:xlink="http://www.w3.org/1999/xlink" width="2000" zoomAndPan="magnify" viewBox="0 0 1500 1499.999933" height="2000" preserveAspectRatio="xMidYMid meet" version="1.0"><defs><g/><clipPath id="9e847e9293"><rect x="0" width="1036" y="0" height="307"/></clipPath></defs><rect x="-150" width="1800" fill="#ffffff" y="-149.999993" height="1799.99992" fill-opacity="1"/><rect x="-150" width="1800" fill="#ffffff" y="-149.999993" height="1799.99992" fill-opacity="1"/><g transform="matrix(1, 0, 0, 1, 230, 576)"><g clip-path="url(#9e847e9293)"><g fill="#737373" fill-opacity="1"><g transform="translate(83.311161, 287.736424)"><g><path d="M 24.53125 0 L 13.78125 -35.03125 L 13.5 -35.03125 C 13.882812 -27.90625 14.078125 -23.148438 14.078125 -20.765625 L 14.078125 0 L 5.625 0 L 5.625 -44.65625 L 18.515625 -44.65625 L 29.078125 -10.515625 L 29.265625 -10.515625 L 40.46875 -44.65625 L 53.375 -44.65625 L 53.375 0 L 44.546875 0 L 44.546875 -21.140625 C 44.546875 -22.140625 44.554688 -23.289062 44.578125 -24.59375 C 44.609375 -25.894531 44.75 -29.359375 45 -34.984375 L 44.71875 -34.984375 L 33.203125 0 Z M 24.53125 0 "/></g></g></g><g fill="#737373" fill-opacity="1"><g transform="translate(157.059516, 287.736424)"><g><path d="M 32.96875 0 L 29.71875 -10.625 L 13.4375 -10.625 L 10.203125 0 L 0 0 L 15.765625 -44.84375 L 27.34375 -44.84375 L 43.171875 0 Z M 27.46875 -18.578125 C 24.46875 -28.203125 22.78125 -33.644531 22.40625 -34.90625 C 22.03125 -36.175781 21.757812 -37.175781 21.59375 -37.90625 C 20.925781 -35.300781 19.003906 -28.859375 15.828125 -18.578125 Z M 27.46875 -18.578125 "/></g></g></g><g fill="#737373" fill-opacity="1"><g transform="translate(214.985375, 287.736424)"><g><path d="M 15.09375 -24.828125 L 18.140625 -24.828125 C 21.140625 -24.828125 23.347656 -25.328125 24.765625 -26.328125 C 26.191406 -27.328125 26.90625 -28.894531 26.90625 -31.03125 C 26.90625 -33.15625 26.175781 -34.664062 24.71875 -35.5625 C 23.269531 -36.457031 21.019531 -36.90625 17.96875 -36.90625 L 15.09375 -36.90625 Z M 15.09375 -17.140625 L 15.09375 0 L 5.625 0 L 5.625 -44.65625 L 18.640625 -44.65625 C 24.703125 -44.65625 29.1875 -43.550781 32.09375 -41.34375 C 35.007812 -39.132812 36.46875 -35.78125 36.46875 -31.28125 C 36.46875 -28.65625 35.742188 -26.316406 34.296875 -24.265625 C 32.859375 -22.222656 30.816406 -20.617188 28.171875 -19.453125 C 34.890625 -9.421875 39.265625 -2.9375 41.296875 0 L 30.796875 0 L 20.125 -17.140625 Z M 15.09375 -17.140625 "/></g></g></g><g fill="#737373" fill-opacity="1"><g transform="translate(271.047967, 287.736424)"><g><path d="M 41.546875 0 L 30.796875 0 L 19.09375 -18.8125 L 15.09375 -15.953125 L 15.09375 0 L 5.625 0 L 5.625 -44.65625 L 15.09375 -44.65625 L 15.09375 -24.21875 L 18.8125 -29.484375 L 30.921875 -44.65625 L 41.421875 -44.65625 L 25.84375 -24.890625 Z M 41.546875 0 "/></g></g></g><g fill="#737373" fill-opacity="1"><g transform="translate(327.354921, 287.736424)"><g><path d="M 31.34375 0 L 5.625 0 L 5.625 -44.65625 L 31.34375 -44.65625 L 31.34375 -36.90625 L 15.09375 -36.90625 L 15.09375 -27.09375 L 30.21875 -27.09375 L 30.21875 -19.34375 L 15.09375 -19.34375 L 15.09375 -7.828125 L 31.34375 -7.828125 Z M 31.34375 0 "/></g></g></g><g fill="#737373" fill-opacity="1"><g transform="translate(377.155714, 287.736424)"><g><path d="M 22.84375 0 L 13.375 0 L 13.375 -36.78125 L 1.25 -36.78125 L 1.25 -44.65625 L 34.984375 -44.65625 L 34.984375 -36.78125 L 22.84375 -36.78125 Z M 22.84375 0 "/></g></g></g><g fill="#737373" fill-opacity="1"><g transform="translate(428.147788, 287.736424)"><g><path d="M 5.625 0 L 5.625 -44.65625 L 15.09375 -44.65625 L 15.09375 0 Z M 5.625 0 "/></g></g></g><g fill="#737373" fill-opacity="1"><g transform="translate(463.622795, 287.736424)"><g><path d="M 45.234375 0 L 33.203125 0 L 13.78125 -33.78125 L 13.5 -33.78125 C 13.882812 -27.8125 14.078125 -23.554688 14.078125 -21.015625 L 14.078125 0 L 5.625 0 L 5.625 -44.65625 L 17.5625 -44.65625 L 36.96875 -11.21875 L 37.171875 -11.21875 C 36.867188 -17.019531 36.71875 -21.117188 36.71875 -23.515625 L 36.71875 -44.65625 L 45.234375 -44.65625 Z M 45.234375 0 "/></g></g></g><g fill="#737373" fill-opacity="1"><g transform="translate(529.246085, 287.736424)"><g><path d="M 22.578125 -25.078125 L 40.296875 -25.078125 L 40.296875 -1.921875 C 37.421875 -0.984375 34.710938 -0.328125 32.171875 0.046875 C 29.640625 0.421875 27.050781 0.609375 24.40625 0.609375 C 17.664062 0.609375 12.519531 -1.367188 8.96875 -5.328125 C 5.414062 -9.285156 3.640625 -14.972656 3.640625 -22.390625 C 3.640625 -29.597656 5.695312 -35.21875 9.8125 -39.25 C 13.9375 -43.28125 19.65625 -45.296875 26.96875 -45.296875 C 31.550781 -45.296875 35.972656 -44.378906 40.234375 -42.546875 L 37.078125 -34.984375 C 33.828125 -36.609375 30.4375 -37.421875 26.90625 -37.421875 C 22.8125 -37.421875 19.53125 -36.046875 17.0625 -33.296875 C 14.601562 -30.546875 13.375 -26.847656 13.375 -22.203125 C 13.375 -17.359375 14.367188 -13.65625 16.359375 -11.09375 C 18.347656 -8.539062 21.234375 -7.265625 25.015625 -7.265625 C 26.992188 -7.265625 29 -7.46875 31.03125 -7.875 L 31.03125 -17.203125 L 22.578125 -17.203125 Z M 22.578125 -25.078125 "/></g></g></g><g fill="#737373" fill-opacity="1"><g transform="translate(589.310118, 287.736424)"><g/></g></g><g fill="#737373" fill-opacity="1"><g transform="translate(620.325504, 287.736424)"><g><path d="M 42.671875 -22.765625 C 42.671875 -15.410156 40.578125 -9.773438 36.390625 -5.859375 C 32.210938 -1.953125 26.171875 0 18.265625 0 L 5.625 0 L 5.625 -44.65625 L 19.640625 -44.65625 C 26.929688 -44.65625 32.59375 -42.726562 36.625 -38.875 C 40.65625 -35.03125 42.671875 -29.660156 42.671875 -22.765625 Z M 32.84375 -22.515625 C 32.84375 -32.109375 28.601562 -36.90625 20.125 -36.90625 L 15.09375 -36.90625 L 15.09375 -7.828125 L 19.15625 -7.828125 C 28.28125 -7.828125 32.84375 -12.722656 32.84375 -22.515625 Z M 32.84375 -22.515625 "/></g></g></g><g fill="#737373" fill-opacity="1"><g transform="translate(681.397523, 287.736424)"><g><path d="M 5.625 0 L 5.625 -44.65625 L 15.09375 -44.65625 L 15.09375 0 Z M 5.625 0 "/></g></g></g><g fill="#737373" fill-opacity="1"><g transform="translate(716.872553, 287.736424)"><g><path d="M 22.578125 -25.078125 L 40.296875 -25.078125 L 40.296875 -1.921875 C 37.421875 -0.984375 34.710938 -0.328125 32.171875 0.046875 C 29.640625 0.421875 27.050781 0.609375 24.40625 0.609375 C 17.664062 0.609375 12.519531 -1.367188 8.96875 -5.328125 C 5.414062 -9.285156 3.640625 -14.972656 3.640625 -22.390625 C 3.640625 -29.597656 5.695312 -35.21875 9.8125 -39.25 C 13.9375 -43.28125 19.65625 -45.296875 26.96875 -45.296875 C 31.550781 -45.296875 35.972656 -44.378906 40.234375 -42.546875 L 37.078125 -34.984375 C 33.828125 -36.609375 30.4375 -37.421875 26.90625 -37.421875 C 22.8125 -37.421875 19.53125 -36.046875 17.0625 -33.296875 C 14.601562 -30.546875 13.375 -26.847656 13.375 -22.203125 C 13.375 -17.359375 14.367188 -13.65625 16.359375 -11.09375 C 18.347656 -8.539062 21.234375 -7.265625 25.015625 -7.265625 C 26.992188 -7.265625 29 -7.46875 31.03125 -7.875 L 31.03125 -17.203125 L 22.578125 -17.203125 Z M 22.578125 -25.078125 "/></g></g></g><g fill="#737373" fill-opacity="1"><g transform="translate(776.936587, 287.736424)"><g><path d="M 5.625 0 L 5.625 -44.65625 L 15.09375 -44.65625 L 15.09375 0 Z M 5.625 0 "/></g></g></g><g fill="#737373" fill-opacity="1"><g transform="translate(812.411617, 287.736424)"><g><path d="M 22.84375 0 L 13.375 0 L 13.375 -36.78125 L 1.25 -36.78125 L 1.25 -44.65625 L 34.984375 -44.65625 L 34.984375 -36.78125 L 22.84375 -36.78125 Z M 22.84375 0 "/></g></g></g><g fill="#737373" fill-opacity="1"><g transform="translate(863.403691, 287.736424)"><g><path d="M 32.96875 0 L 29.71875 -10.625 L 13.4375 -10.625 L 10.203125 0 L 0 0 L 15.765625 -44.84375 L 27.34375 -44.84375 L 43.171875 0 Z M 27.46875 -18.578125 C 24.46875 -28.203125 22.78125 -33.644531 22.40625 -34.90625 C 22.03125 -36.175781 21.757812 -37.175781 21.59375 -37.90625 C 20.925781 -35.300781 19.003906 -28.859375 15.828125 -18.578125 Z M 27.46875 -18.578125 "/></g></g></g><g fill="#737373" fill-opacity="1"><g transform="translate(921.329572, 287.736424)"><g><path d="M 5.625 0 L 5.625 -44.65625 L 15.09375 -44.65625 L 15.09375 -7.828125 L 33.203125 -7.828125 L 33.203125 0 Z M 5.625 0 "/></g></g></g><g fill="#1b1338" fill-opacity="1"><g transform="translate(1.232425, 176.835152)"><g><path d="M 5.140625 0 C 7.867188 -1.007812 10.039062 -2.144531 11.65625 -3.40625 C 13.269531 -4.664062 14.425781 -6.476562 15.125 -8.84375 C 15.832031 -11.21875 16.1875 -14.523438 16.1875 -18.765625 L 16.1875 -76.5625 C 16.1875 -80.800781 15.832031 -84.101562 15.125 -86.46875 C 14.425781 -88.84375 13.269531 -90.660156 11.65625 -91.921875 C 10.039062 -93.179688 7.867188 -94.316406 5.140625 -95.328125 L 55.53125 -95.328125 C 52.8125 -94.316406 50.644531 -93.179688 49.03125 -91.921875 C 47.414062 -90.660156 46.253906 -88.84375 45.546875 -86.46875 C 44.835938 -84.101562 44.484375 -80.800781 44.484375 -76.5625 L 44.484375 -20.578125 L 92.453125 -20.578125 C 98.398438 -20.578125 102.660156 -21.6875 105.234375 -23.90625 C 107.804688 -26.125 109.75 -29.554688 111.0625 -34.203125 L 111.0625 0 Z M 5.140625 0 "/></g></g></g><g fill="#1b1338" fill-opacity="1"><g transform="translate(101.851834, 176.835152)"><g><path d="M 1.359375 0 C 4.179688 -1.507812 6.425781 -3.070312 8.09375 -4.6875 C 9.757812 -6.300781 11.195312 -8.367188 12.40625 -10.890625 C 13.613281 -13.410156 14.925781 -16.691406 16.34375 -20.734375 L 43.875 -95.328125 L 87.765625 -95.328125 L 115.296875 -20.734375 C 116.804688 -16.691406 118.164062 -13.410156 119.375 -10.890625 C 120.59375 -8.367188 122.03125 -6.300781 123.6875 -4.6875 C 125.351562 -3.070312 127.601562 -1.507812 130.4375 0 L 77.46875 0 C 81.40625 -0.800781 84.203125 -1.957031 85.859375 -3.46875 C 87.523438 -4.988281 88.359375 -7.007812 88.359375 -9.53125 C 88.359375 -10.539062 88.234375 -11.648438 87.984375 -12.859375 C 87.734375 -14.066406 87.359375 -15.328125 86.859375 -16.640625 L 84.4375 -23.453125 L 47.203125 -23.453125 L 44.78125 -16.640625 C 44.382812 -15.328125 44.035156 -14.09375 43.734375 -12.9375 C 43.429688 -11.78125 43.28125 -10.644531 43.28125 -9.53125 C 43.28125 -7.113281 44.132812 -5.117188 45.84375 -3.546875 C 47.5625 -1.984375 50.390625 -0.800781 54.328125 0 Z M 54.171875 -44.03125 L 77.328125 -44.03125 L 65.671875 -77.46875 Z M 54.171875 -44.03125 "/></g></g></g><g fill="#1b1338" fill-opacity="1"><g transform="translate(221.536025, 176.835152)"><g><path d="M 57.34375 -96.6875 C 66.925781 -96.6875 75.195312 -96.234375 82.15625 -95.328125 C 89.125 -94.421875 94.472656 -93.507812 98.203125 -92.59375 C 101.929688 -91.6875 103.796875 -91.234375 103.796875 -91.234375 L 103.796875 -61.734375 C 103.796875 -61.734375 103.34375 -62.414062 102.4375 -63.78125 C 101.53125 -65.144531 99.6875 -66.707031 96.90625 -68.46875 C 94.132812 -70.226562 89.976562 -71.71875 84.4375 -72.9375 C 80.394531 -73.738281 75.800781 -74.441406 70.65625 -75.046875 C 65.519531 -75.648438 60.078125 -75.953125 54.328125 -75.953125 C 47.160156 -75.953125 42.210938 -75.375 39.484375 -74.21875 C 36.765625 -73.0625 35.40625 -71.117188 35.40625 -68.390625 C 35.40625 -66.066406 36.3125 -64.398438 38.125 -63.390625 C 39.945312 -62.390625 42.269531 -61.632812 45.09375 -61.125 L 77.46875 -56.59375 C 87.957031 -55.28125 95.546875 -52.351562 100.234375 -47.8125 C 104.929688 -43.269531 107.28125 -36.96875 107.28125 -28.90625 C 107.28125 -22.644531 105.816406 -17.242188 102.890625 -12.703125 C 99.960938 -8.171875 95.09375 -4.691406 88.28125 -2.265625 C 81.476562 0.148438 72.125 1.359375 60.21875 1.359375 C 48.71875 1.359375 39.035156 0.90625 31.171875 0 C 23.304688 -0.90625 17.328125 -1.835938 13.234375 -2.796875 C 9.148438 -3.753906 7.109375 -4.234375 7.109375 -4.234375 L 7.265625 -33.140625 C 7.265625 -33.140625 7.894531 -32.40625 9.15625 -30.9375 C 10.414062 -29.476562 12.554688 -27.863281 15.578125 -26.09375 C 18.609375 -24.332031 22.796875 -22.945312 28.140625 -21.9375 C 32.273438 -21.226562 37.09375 -20.597656 42.59375 -20.046875 C 48.09375 -19.492188 54.269531 -19.21875 61.125 -19.21875 C 67.476562 -19.21875 72.039062 -19.972656 74.8125 -21.484375 C 77.59375 -22.992188 78.984375 -25.316406 78.984375 -28.453125 C 78.984375 -30.566406 78.273438 -32.203125 76.859375 -33.359375 C 75.453125 -34.523438 73.132812 -35.410156 69.90625 -36.015625 L 37.21875 -40.40625 C 26.925781 -41.613281 19.332031 -44.484375 14.4375 -49.015625 C 9.550781 -53.554688 7.109375 -59.914062 7.109375 -68.09375 C 7.109375 -74.550781 8.75 -79.894531 12.03125 -84.125 C 15.3125 -88.363281 20.628906 -91.515625 27.984375 -93.578125 C 35.347656 -95.648438 45.132812 -96.6875 57.34375 -96.6875 Z M 57.34375 -96.6875 "/></g></g></g><g fill="#1b1338" fill-opacity="1"><g transform="translate(322.306734, 176.835152)"><g/></g></g><g fill="#1b1338" fill-opacity="1"><g transform="translate(356.199369, 176.835152)"><g><path d="M 7.109375 -47.65625 C 7.109375 -63.90625 12.050781 -76.140625 21.9375 -84.359375 C 31.820312 -92.578125 46.398438 -96.6875 65.671875 -96.6875 C 75.753906 -96.6875 84.070312 -96.234375 90.625 -95.328125 C 97.1875 -94.421875 102.082031 -93.488281 105.3125 -92.53125 C 108.539062 -91.570312 110.15625 -91.09375 110.15625 -91.09375 L 110.15625 -63.703125 C 110.15625 -63.703125 109.597656 -64.253906 108.484375 -65.359375 C 107.378906 -66.472656 105.566406 -67.757812 103.046875 -69.21875 C 100.523438 -70.6875 97.144531 -72.023438 92.90625 -73.234375 C 89.875 -74.046875 86.441406 -74.726562 82.609375 -75.28125 C 78.773438 -75.832031 74.335938 -76.109375 69.296875 -76.109375 C 57.796875 -76.109375 49.269531 -73.609375 43.71875 -68.609375 C 38.175781 -63.617188 35.40625 -56.632812 35.40625 -47.65625 C 35.40625 -38.6875 38.175781 -31.703125 43.71875 -26.703125 C 49.269531 -21.710938 57.796875 -19.21875 69.296875 -19.21875 C 74.648438 -19.21875 79.367188 -19.519531 83.453125 -20.125 C 87.535156 -20.726562 91.085938 -21.484375 94.109375 -22.390625 C 98.148438 -23.597656 101.328125 -24.910156 103.640625 -26.328125 C 105.960938 -27.742188 107.628906 -28.976562 108.640625 -30.03125 C 109.648438 -31.09375 110.15625 -31.625 110.15625 -31.625 L 110.15625 -4.234375 C 110.15625 -4.234375 108.539062 -3.753906 105.3125 -2.796875 C 102.082031 -1.835938 97.1875 -0.90625 90.625 0 C 84.070312 0.90625 75.753906 1.359375 65.671875 1.359375 C 46.398438 1.359375 31.820312 -2.773438 21.9375 -11.046875 C 12.050781 -19.316406 7.109375 -31.519531 7.109375 -47.65625 Z M 7.109375 -47.65625 "/></g></g></g><g fill="#1b1338" fill-opacity="1"><g transform="translate(461.357983, 176.835152)"><g><path d="M 1.359375 0 C 4.179688 -1.507812 6.425781 -3.070312 8.09375 -4.6875 C 9.757812 -6.300781 11.195312 -8.367188 12.40625 -10.890625 C 13.613281 -13.410156 14.925781 -16.691406 16.34375 -20.734375 L 43.875 -95.328125 L 87.765625 -95.328125 L 115.296875 -20.734375 C 116.804688 -16.691406 118.164062 -13.410156 119.375 -10.890625 C 120.59375 -8.367188 122.03125 -6.300781 123.6875 -4.6875 C 125.351562 -3.070312 127.601562 -1.507812 130.4375 0 L 77.46875 0 C 81.40625 -0.800781 84.203125 -1.957031 85.859375 -3.46875 C 87.523438 -4.988281 88.359375 -7.007812 88.359375 -9.53125 C 88.359375 -10.539062 88.234375 -11.648438 87.984375 -12.859375 C 87.734375 -14.066406 87.359375 -15.328125 86.859375 -16.640625 L 84.4375 -23.453125 L 47.203125 -23.453125 L 44.78125 -16.640625 C 44.382812 -15.328125 44.035156 -14.09375 43.734375 -12.9375 C 43.429688 -11.78125 43.28125 -10.644531 43.28125 -9.53125 C 43.28125 -7.113281 44.132812 -5.117188 45.84375 -3.546875 C 47.5625 -1.984375 50.390625 -0.800781 54.328125 0 Z M 54.171875 -44.03125 L 77.328125 -44.03125 L 65.671875 -77.46875 Z M 54.171875 -44.03125 "/></g></g></g><g fill="#1b1338" fill-opacity="1"><g transform="translate(581.042197, 176.835152)"><g><path d="M 5.140625 0 C 7.867188 -1.007812 10.039062 -2.144531 11.65625 -3.40625 C 13.269531 -4.664062 14.425781 -6.476562 15.125 -8.84375 C 15.832031 -11.21875 16.1875 -14.523438 16.1875 -18.765625 L 16.1875 -76.5625 C 16.1875 -80.800781 15.832031 -84.101562 15.125 -86.46875 C 14.425781 -88.84375 13.269531 -90.660156 11.65625 -91.921875 C 10.039062 -93.179688 7.867188 -94.316406 5.140625 -95.328125 L 76.859375 -95.328125 C 88.566406 -95.328125 96.941406 -93.109375 101.984375 -88.671875 C 107.023438 -84.234375 109.546875 -77.675781 109.546875 -69 C 109.546875 -60.726562 107.226562 -54.320312 102.59375 -49.78125 C 107.332031 -47.757812 110.785156 -44.78125 112.953125 -40.84375 C 115.117188 -36.914062 116.203125 -32.078125 116.203125 -26.328125 C 116.203125 -17.648438 113.679688 -11.09375 108.640625 -6.65625 C 103.597656 -2.21875 95.226562 0 83.53125 0 Z M 44.484375 -38.28125 L 44.484375 -18.765625 L 76.40625 -18.765625 C 80.539062 -18.765625 83.515625 -19.570312 85.328125 -21.1875 C 87.148438 -22.800781 88.0625 -25.171875 88.0625 -28.296875 C 88.0625 -31.617188 87.148438 -34.113281 85.328125 -35.78125 C 83.515625 -37.445312 80.539062 -38.28125 76.40625 -38.28125 Z M 44.484375 -57.046875 L 69.609375 -57.046875 C 73.742188 -57.046875 76.691406 -57.875 78.453125 -59.53125 C 80.222656 -61.195312 81.109375 -63.695312 81.109375 -67.03125 C 81.109375 -70.257812 80.222656 -72.65625 78.453125 -74.21875 C 76.691406 -75.78125 73.742188 -76.5625 69.609375 -76.5625 L 44.484375 -76.5625 Z M 44.484375 -57.046875 "/></g></g></g><g fill="#1b1338" fill-opacity="1"><g transform="translate(692.404432, 176.835152)"><g><path d="M 5.140625 -95.328125 L 80.046875 -95.328125 C 92.347656 -95.328125 101.445312 -92.703125 107.34375 -87.453125 C 113.25 -82.210938 116.203125 -73.890625 116.203125 -62.484375 C 116.203125 -53.816406 114.488281 -46.984375 111.0625 -41.984375 C 107.632812 -36.992188 102.335938 -33.640625 95.171875 -31.921875 L 103.046875 -20.734375 C 106.878906 -15.078125 110.429688 -10.632812 113.703125 -7.40625 C 116.984375 -4.1875 120.539062 -1.71875 124.375 0 L 83.53125 0 L 49.78125 -51 L 73.84375 -51 C 78.6875 -51 82.265625 -51.90625 84.578125 -53.71875 C 86.898438 -55.53125 88.0625 -58.554688 88.0625 -62.796875 C 88.0625 -67.035156 86.898438 -70.085938 84.578125 -71.953125 C 82.265625 -73.816406 78.6875 -74.75 73.84375 -74.75 L 44.484375 -74.75 L 44.484375 -18.765625 C 44.484375 -14.523438 44.835938 -11.21875 45.546875 -8.84375 C 46.253906 -6.476562 47.414062 -4.664062 49.03125 -3.40625 C 50.644531 -2.144531 52.8125 -1.007812 55.53125 0 L 5.140625 0 C 7.867188 -1.007812 10.039062 -2.144531 11.65625 -3.40625 C 13.269531 -4.664062 14.425781 -6.476562 15.125 -8.84375 C 15.832031 -11.21875 16.1875 -14.523438 16.1875 -18.765625 L 16.1875 -76.5625 C 16.1875 -80.800781 15.832031 -84.101562 15.125 -86.46875 C 14.425781 -88.84375 13.269531 -90.660156 11.65625 -91.921875 C 10.039062 -93.179688 7.867188 -94.316406 5.140625 -95.328125 Z M 5.140625 -95.328125 "/></g></g></g><g fill="#1b1338" fill-opacity="1"><g transform="translate(806.338972, 176.835152)"><g><path d="M 1.359375 0 C 4.179688 -1.507812 6.425781 -3.070312 8.09375 -4.6875 C 9.757812 -6.300781 11.195312 -8.367188 12.40625 -10.890625 C 13.613281 -13.410156 14.925781 -16.691406 16.34375 -20.734375 L 43.875 -95.328125 L 87.765625 -95.328125 L 115.296875 -20.734375 C 116.804688 -16.691406 118.164062 -13.410156 119.375 -10.890625 C 120.59375 -8.367188 122.03125 -6.300781 123.6875 -4.6875 C 125.351562 -3.070312 127.601562 -1.507812 130.4375 0 L 77.46875 0 C 81.40625 -0.800781 84.203125 -1.957031 85.859375 -3.46875 C 87.523438 -4.988281 88.359375 -7.007812 88.359375 -9.53125 C 88.359375 -10.539062 88.234375 -11.648438 87.984375 -12.859375 C 87.734375 -14.066406 87.359375 -15.328125 86.859375 -16.640625 L 84.4375 -23.453125 L 47.203125 -23.453125 L 44.78125 -16.640625 C 44.382812 -15.328125 44.035156 -14.09375 43.734375 -12.9375 C 43.429688 -11.78125 43.28125 -10.644531 43.28125 -9.53125 C 43.28125 -7.113281 44.132812 -5.117188 45.84375 -3.546875 C 47.5625 -1.984375 50.390625 -0.800781 54.328125 0 Z M 54.171875 -44.03125 L 77.328125 -44.03125 L 65.671875 -77.46875 Z M 54.171875 -44.03125 "/></g></g></g><g fill="#1b1338" fill-opacity="1"><g transform="translate(926.02314, 176.835152)"><g><path d="M 57.34375 -96.6875 C 66.925781 -96.6875 75.195312 -96.234375 82.15625 -95.328125 C 89.125 -94.421875 94.472656 -93.507812 98.203125 -92.59375 C 101.929688 -91.6875 103.796875 -91.234375 103.796875 -91.234375 L 103.796875 -61.734375 C 103.796875 -61.734375 103.34375 -62.414062 102.4375 -63.78125 C 101.53125 -65.144531 99.6875 -66.707031 96.90625 -68.46875 C 94.132812 -70.226562 89.976562 -71.71875 84.4375 -72.9375 C 80.394531 -73.738281 75.800781 -74.441406 70.65625 -75.046875 C 65.519531 -75.648438 60.078125 -75.953125 54.328125 -75.953125 C 47.160156 -75.953125 42.210938 -75.375 39.484375 -74.21875 C 36.765625 -73.0625 35.40625 -71.117188 35.40625 -68.390625 C 35.40625 -66.066406 36.3125 -64.398438 38.125 -63.390625 C 39.945312 -62.390625 42.269531 -61.632812 45.09375 -61.125 L 77.46875 -56.59375 C 87.957031 -55.28125 95.546875 -52.351562 100.234375 -47.8125 C 104.929688 -43.269531 107.28125 -36.96875 107.28125 -28.90625 C 107.28125 -22.644531 105.816406 -17.242188 102.890625 -12.703125 C 99.960938 -8.171875 95.09375 -4.691406 88.28125 -2.265625 C 81.476562 0.148438 72.125 1.359375 60.21875 1.359375 C 48.71875 1.359375 39.035156 0.90625 31.171875 0 C 23.304688 -0.90625 17.328125 -1.835938 13.234375 -2.796875 C 9.148438 -3.753906 7.109375 -4.234375 7.109375 -4.234375 L 7.265625 -33.140625 C 7.265625 -33.140625 7.894531 -32.40625 9.15625 -30.9375 C 10.414062 -29.476562 12.554688 -27.863281 15.578125 -26.09375 C 18.609375 -24.332031 22.796875 -22.945312 28.140625 -21.9375 C 32.273438 -21.226562 37.09375 -20.597656 42.59375 -20.046875 C 48.09375 -19.492188 54.269531 -19.21875 61.125 -19.21875 C 67.476562 -19.21875 72.039062 -19.972656 74.8125 -21.484375 C 77.59375 -22.992188 78.984375 -25.316406 78.984375 -28.453125 C 78.984375 -30.566406 78.273438 -32.203125 76.859375 -33.359375 C 75.453125 -34.523438 73.132812 -35.410156 69.90625 -36.015625 L 37.21875 -40.40625 C 26.925781 -41.613281 19.332031 -44.484375 14.4375 -49.015625 C 9.550781 -53.554688 7.109375 -59.914062 7.109375 -68.09375 C 7.109375 -74.550781 8.75 -79.894531 12.03125 -84.125 C 15.3125 -88.363281 20.628906 -91.515625 27.984375 -93.578125 C 35.347656 -95.648438 45.132812 -96.6875 57.34375 -96.6875 Z M 57.34375 -96.6875 "/></g></g></g></g></g></svg>